# xmcd
#
# Track frame offsets:
#	180
#	12526
#	29362
#	47688
#	59530
#	74644
#	91629
#	108978
#	123826
#	141277
#
# Disc length: 2056 seconds
#
# Revision: 3
# Processed by: cddbd v1.5.2PL0 Copyright (c) Steve Scherf et al.
# Submitted via: audiograbber 1.83.01
#
DISCID=8908060a
DTITLE=Various Artist - New Country - Volume 4 - Number 9
DYEAR=1997
DGENRE=Country
TTITLE0=Kentucky Headhunters - Singin' The Blues
TTITLE1=John and Audrey Wiggins - Going With My Heart
TTITLE2=Lee Roy Parnell - Honky Tonk Night Time Man
TTITLE3=Lonesome Strangers - Lingerin' Thing
TTITLE4=Charlie Daniels - Boogie Woogie Baltimore
TTITLE5=Duke Levine - Quiz Show
TTITLE6=Dale Ann Bradley - East Kentucky Morning
TTITLE7=Neil Mooney - Devil #2
TTITLE8=Julie Miller - Take Me Back
TTITLE9=Sammy Shelor - Mountain Girl
EXTD=
EXTT0=
EXTT1=
EXTT2=
EXTT3=
EXTT4=
EXTT5=
EXTT6=
EXTT7=
EXTT8=
EXTT9=
PLAYORDER=
